<svg xmlns="http://www.w3.org/2000/svg" fill="none" viewBox="0 0 80 34"><path fill="#020202" d="M78.71 16.14a6.97 6.97 0 0 0-2.11-3.54 5.81 5.81 0 0 0-2.62-1.45c-1.3-1.1-2.5-1.47-4.6-1.47a8.8 8.8 0 0 0-4.68 1.5 4.2 4.2 0 0 0-.95-.22 1.57 1.57 0 0 0-.09-.11c-.94-1.17-2.52-1.17-3.04-1.17h-2.26c-1.8 0-2.8.7-3.39 1.5-.3-.1-.63-.17-1-.21 0-.02-.01-.03-.03-.05a4.92 4.92 0 0 0-.63-9.43A4.92 4.92 0 1 0 48 9.7a3.83 3.83 0 0 0-2.7 1.28 3.22 3.22 0 0 0-.5-.04l-.02-.03a2.83 2.83 0 0 0-2.46-1.22h-2.97c-1.71 0-2.9.76-3.51 2.25l-.13.34a3.05 3.05 0 0 0-2.45-1.33l-.23-.29a3.09 3.09 0 0 0-2.34-.97h-3.03c-2.13 0-3.07 1.2-3.49 2.2l-.1.23a2.94 2.94 0 0 0-2.34-1.18 2.6 2.6 0 0 0-.22-.3c-.56-.64-1.37-.95-2.46-.95h-7.07a5.65 5.65 0 0 0-3.22.57l-6.09 2.75a4.36 4.36 0 0 0 1.06 8.25c.28.28.6.53.94.73l-.79 4.3a5 5 0 0 0 3.86 5.79A5.02 5.02 0 0 0 15.5 31l.11.12c.56.58 1.3.92 2.2 1.03l.2.22a3.8 3.8 0 0 0 2.83 1.07h4.07c.99 0 1.8-.36 2.45-1.1.3-.32.53-.71.73-1.1.42.4 1.1.83 2.1.93l.12.15c.46.5 1.3 1.12 2.71 1.12h4.65c.98 0 1.8-.33 2.44-.96.58-.59.95-1.38 1.23-2.08l.33-.81a3 3 0 0 0 2.92 2.6l.15.2c.4.48 1.16 1.05 2.46 1.05h3.19c1.58 0 2.45-.77 2.9-1.42l.05-.07c.3.12.65.2 1.07.23l.1.14a3.13 3.13 0 0 0 2.57 1.12h2.72c1.27 0 2.29-.52 2.94-1.5.48-.73.68-1.61.83-2.44l1.27-7.02c.22-1.22.82-1.82 1.06-2.17v.1l-1.27 7.55v.01c-.26 1.65.23 2.64.7 3.17a3 3 0 0 0 2.22 1.04 3.11 3.11 0 0 0 2.59 1.26l3.12-.01c1.25 0 2.24-.5 2.88-1.47a6.4 6.4 0 0 0 .83-2.47l1.8-9.67c.25-1.24.23-2.5-.06-3.68Z"/><path fill="#fff" d="m67.2 20.6-1.27 7.57c-.26 1.7.45 2.7 1.82 2.7h3.12c1.77 0 2.16-1.4 2.41-2.86l1.81-9.7c.41-1.93.07-4.35-1.75-5.98-1.1-.97-2-1.33-3.96-1.33-2.6 0-5.54 1.88-6.75 4.32l.24-1.21c.54-2.46-.5-3.1-2.24-3.1h-2.25c-2.17 0-2.65 1.18-2.9 2.52l-2.65 14.65c-.22.99-.09 2.69 1.87 2.69h3.14c1.84 0 2.23-1.47 2.47-2.86L61.58 21c.3-1.6.54-2.4 1.09-2.98.84-.97 2.51-1.38 3.69-.42.76.61 1.02 1.6.84 3Zm-16.7 7.41c-.26 1.52-.7 2.86-2.5 2.86h-3.19c-1.53 0-2.06-1.15-1.8-2.63l2.62-14.7c.27-1.57.94-2.53 2.9-2.53h2.41c2.04 0 2.57.97 2.1 3.1l-2.54 13.9Z"/><path fill="#00A3FF" d="M50.29 8.95a3.6 3.6 0 1 0 0-7.19 3.6 3.6 0 0 0 0 7.2Z"/><path fill="#fff" d="M15.6 11.01c.8.95 1.74 2.16 1.28 5l-1.26 6.69.23 5.39c.05 1.92.97 2.78 2.6 2.78h4.07c1.3 0 1.82-.98 2.34-2.23L27.97 21l.32 7.3c.02 1.62.85 2.58 2.34 2.58h4.65c1.33 0 1.88-.8 2.46-2.22L43.67 14c.64-1.52.27-3-1.34-3h-2.97c-1.11 0-1.85.39-2.3 1.44l-4 9.82-.37-8.76c-.06-1.86-.95-2.5-1.99-2.5h-3.03c-1.2 0-1.9.48-2.27 1.4l-4.02 9.86-.36-8.97c-.05-1.68-.61-2.28-1.97-2.28H15.6Z"/><path fill="#00A3FF" d="M14.74 15.5a3.65 3.65 0 0 0-1.48-3.93c-1.11-.74-2.49-.83-3.93-.1L3.22 14.2a3.04 3.04 0 0 0-1.52 4c.68 1.53 2.47 2.2 3.98 1.53l.82-.37-1.31 7.15a3.65 3.65 0 0 0 2.93 4.29 3.66 3.66 0 0 0 4.3-2.96l2.32-12.35Z"/></svg>