<?xml version="1.0" standalone="no"?>
<!DOCTYPE svg PUBLIC "-//W3C//DTD SVG 20010904//EN"
 "http://www.w3.org/TR/2001/REC-SVG-20010904/DTD/svg10.dtd">
<svg version="1.0" xmlns="http://www.w3.org/2000/svg"
 width="264.000000pt" height="266.000000pt" viewBox="0 0 264.000000 266.000000"
 preserveAspectRatio="xMidYMid meet">

<g transform="translate(0.000000,266.000000) scale(0.100000,-0.100000)"
fill="#000000" stroke="none">
<path d="M1334 2579 c-54 -12 -109 -64 -125 -117 -24 -82 33 -178 121 -202
151 -41 272 142 173 261 -42 50 -106 72 -169 58z"/>
<path d="M563 2242 c-7 -5 24 -15 75 -25 220 -41 447 -186 583 -372 40 -54
129 -221 129 -241 0 -39 24 -13 65 71 133 270 398 476 700 544 73 17 77 19 50
26 -55 15 -283 -13 -454 -55 -283 -71 -388 -73 -620 -14 -155 40 -229 53 -351
64 -138 12 -161 12 -177 2z"/>
<path d="M1667 1872 c-31 -32 -54 -62 -50 -67 5 -4 3 -5 -4 -1 -17 9 -38 -33
-24 -47 10 -10 15 0 13 24 -1 3 5 6 13 6 8 0 12 -4 9 -8 -2 -4 0 -10 6 -14 5
-3 10 -2 10 4 0 6 6 8 14 5 7 -3 16 3 19 13 2 10 8 26 12 36 5 13 3 16 -8 11
-8 -3 -18 0 -23 7 -4 8 -3 10 4 5 7 -4 12 -3 12 3 0 6 8 8 18 5 14 -5 15 -4 2
5 -13 9 -13 11 2 11 16 0 48 35 48 52 0 18 -18 5 -73 -50z m-20 -57 c0 -8 -4
-12 -9 -9 -5 3 -6 10 -3 15 9 13 12 11 12 -6z"/>
<path d="M1010 1918 c0 -19 25 -58 37 -58 8 0 12 -4 9 -9 -8 -13 4 -42 15 -35
5 3 6 -1 3 -9 -3 -8 0 -18 5 -22 6 -3 8 -11 5 -17 -5 -8 1 -9 17 -5 23 6 23 5
5 -8 -17 -13 -17 -15 -3 -15 9 0 21 -9 27 -19 14 -27 13 -34 -6 -27 -12 5 -14
1 -8 -17 4 -12 14 -28 23 -35 9 -8 10 -11 3 -7 -10 5 -11 -3 -6 -37 4 -24 10
-44 14 -46 3 -1 4 -16 2 -32 -2 -17 0 -30 4 -30 5 0 8 -20 6 -46 -3 -33 1 -51
14 -66 11 -12 13 -18 6 -14 -11 6 -12 -13 -6 -106 3 -62 12 -125 19 -140 8
-16 9 -30 4 -34 -14 -8 -11 -26 4 -18 9 5 9 4 1 -5 -11 -12 -7 -74 5 -66 4 2
6 -9 3 -24 -3 -20 3 -34 18 -49 12 -11 17 -22 12 -26 -5 -3 -7 -19 -4 -35 2
-18 9 -28 15 -24 6 3 7 1 3 -5 -4 -7 -4 -18 1 -24 4 -7 9 -24 11 -38 4 -32 20
-49 17 -18 -1 13 -4 25 -5 28 -5 9 0 255 6 313 3 31 9 57 13 57 4 0 13 -22 21
-50 7 -27 20 -52 29 -55 13 -5 14 -4 4 6 -7 7 -13 20 -13 28 0 11 4 10 15 -5
13 -18 14 -16 16 21 1 22 2 50 2 62 0 12 3 21 6 19 3 -2 14 22 25 55 10 32 22
59 26 59 15 0 32 -58 36 -129 2 -41 9 -80 15 -88 6 -7 7 -13 3 -13 -5 0 -10
-14 -10 -30 -1 -25 1 -29 13 -19 11 10 11 14 1 20 -8 6 -9 9 -2 9 6 0 11 8 11
18 0 9 1 28 3 42 2 24 3 23 9 -5 4 -16 4 -38 -1 -47 -10 -20 2 -24 18 -8 7 7
11 6 11 -4 0 -8 -5 -12 -10 -9 -6 4 -7 1 -2 -7 6 -9 4 -11 -6 -5 -11 6 -12 5
-2 -5 7 -8 15 -11 19 -7 9 9 14 78 6 73 -9 -5 -4 60 5 84 4 8 7 22 7 30 1 8 5
21 9 27 4 7 7 30 6 52 -2 30 -7 38 -19 36 -9 -2 -17 3 -17 10 0 8 4 12 9 9 4
-3 8 3 9 13 0 16 1 16 9 -2 7 -19 8 -18 13 5 4 14 7 43 9 66 3 35 1 40 -14 36
-20 -5 -25 22 -6 34 7 5 9 2 5 -9 -4 -11 -2 -14 8 -11 12 5 22 49 30 134 1 14
6 33 10 42 3 9 7 22 9 30 1 7 5 18 9 25 9 14 -2 45 -14 37 -5 -3 -9 -10 -9
-15 0 -6 5 -7 10 -4 6 3 10 2 10 -3 0 -6 -7 -13 -15 -16 -11 -4 -19 3 -25 20
-7 18 -15 24 -26 20 -8 -3 -12 -2 -9 4 3 6 2 10 -4 10 -10 0 -27 -38 -23 -52
1 -5 -3 -8 -9 -8 -6 0 -9 -7 -6 -15 4 -8 1 -17 -5 -21 -7 -4 -8 -3 -4 4 4 7 3
12 -2 12 -8 0 -52 -80 -54 -97 0 -4 -8 -19 -18 -33 -19 -27 -42 -100 -32 -100
4 0 1 -4 -5 -8 -7 -4 -19 -26 -27 -47 -9 -25 -15 -32 -15 -20 -1 11 -8 38 -17
60 -8 22 -17 48 -20 57 -4 10 -10 15 -15 12 -5 -3 -6 1 -4 9 5 13 -31 107 -41
107 -3 0 -2 -5 2 -12 4 -6 3 -8 -4 -5 -5 4 -8 16 -5 27 6 22 -12 28 -21 8 -3
-7 -3 0 -1 15 3 22 1 27 -11 23 -8 -3 -13 -2 -9 3 8 14 -10 53 -43 88 -16 17
-28 33 -26 35 2 2 -26 35 -61 74 -36 38 -65 66 -65 62z m149 -208 c0 -9 -4 -8
-9 5 -5 11 -9 27 -9 35 0 9 4 8 9 -5 5 -11 9 -27 9 -35z m21 -35 c7 -9 8 -15
2 -15 -5 0 -12 7 -16 15 -3 8 -4 15 -2 15 2 0 9 -7 16 -15z m88 -136 c-3 -8
-7 -3 -11 10 -4 17 -3 21 5 13 5 -5 8 -16 6 -23z m314 -4 c3 -14 1 -28 -3 -31
-5 -3 -9 9 -9 25 0 38 6 40 12 6z m-252 -131 c0 -2 -9 0 -20 6 -11 6 -20 13
-20 16 0 2 9 0 20 -6 11 -6 20 -13 20 -16z m236 1 c1 -8 -1 -13 -6 -10 -5 3
-10 0 -12 -7 -3 -7 -7 -3 -10 9 -4 17 -2 20 10 16 11 -5 13 -3 7 8 -5 8 -4 11
0 6 5 -4 10 -14 11 -22z m-389 -7 c-3 -8 -6 -5 -6 6 -1 11 2 17 5 13 3 -3 4
-12 1 -19z m233 -103 c-7 -9 -15 -13 -17 -11 -6 6 20 36 26 30 2 -2 -2 -10 -9
-19z m146 -46 c-1 -19 -7 -34 -16 -36 -9 -3 -11 -1 -5 4 15 12 17 33 5 47 -5
7 -7 16 -4 19 13 12 21 -3 20 -34z m-171 -18 c3 -5 2 -12 -3 -15 -5 -3 -9 1
-9 9 0 17 3 19 12 6z m156 -38 c-8 -3 -9 -8 -3 -12 6 -4 5 -11 -4 -19 -12 -11
-14 -10 -14 6 0 21 8 32 24 31 6 0 5 -3 -3 -6z m-34 -25 c-3 -8 -6 -5 -6 6 -1
11 2 17 5 13 3 -3 4 -12 1 -19z m-150 -60 c-3 -7 -5 -2 -5 12 0 14 2 19 5 13
2 -7 2 -19 0 -25z"/>
<path d="M1606 1755 c-5 -14 -9 -15 -21 -5 -9 7 -18 10 -22 6 -11 -11 31 -35
47 -26 8 4 21 5 29 2 8 -2 11 0 7 6 -3 6 -3 12 1 15 5 2 2 2 -6 0 -8 -2 -18 1
-21 7 -5 8 -9 6 -14 -5z"/>
<path d="M1100 1720 c0 -5 5 -10 10 -10 6 0 10 5 10 10 0 6 -4 10 -10 10 -5 0
-10 -4 -10 -10z"/>
<path d="M807 1244 c-3 -4 -3 -14 2 -23 5 -9 7 -23 5 -31 -1 -8 -5 -24 -7 -35
-3 -11 2 -29 10 -40 12 -15 14 -15 10 -3 -3 9 -3 19 1 22 8 8 3 86 -7 104 -4
7 -10 10 -14 6z"/>
<path d="M1946 1168 c-3 -46 -8 -132 -11 -193 l-5 -110 37 75 c33 66 38 83 36
140 -3 75 -23 162 -39 167 -7 2 -13 -25 -18 -79z"/>
<path d="M788 1188 c-4 -82 -4 -184 0 -195 2 -7 8 -10 13 -7 5 3 6 -1 3 -9 -3
-8 0 -18 5 -22 6 -3 9 -11 6 -16 -4 -5 -1 -9 5 -9 6 0 9 -4 6 -9 -3 -4 1 -17
10 -27 14 -18 15 -18 4 4 -6 12 -8 22 -5 22 3 0 1 9 -5 20 -8 14 -8 20 0 20 7
0 10 15 7 38 -4 45 -14 65 -29 56 -7 -4 -8 -2 -4 4 4 6 14 9 24 6 11 -4 10 -1
-4 8 -12 7 -20 21 -19 30 2 10 -1 20 -5 23 -5 3 -7 14 -4 25 2 11 6 29 8 40 3
11 1 22 -5 25 -5 4 -10 -9 -11 -27z m29 -154 c-3 -3 -12 -4 -19 -1 -8 3 -5 6
6 6 11 1 17 -2 13 -5z m7 -22 c2 -4 -4 -8 -15 -8 -10 0 -19 4 -19 8 0 10 27
10 34 0z"/>
<path d="M663 1173 c-7 -3 -13 -16 -13 -31 0 -19 3 -23 11 -15 6 6 19 9 28 6
12 -4 13 -3 3 5 -8 5 -13 12 -12 16 3 14 -5 23 -17 19z"/>
<path d="M921 1173 c1 -4 -3 -21 -9 -36 -14 -34 -15 -47 -2 -27 8 13 10 13 10
-1 0 -9 -7 -22 -16 -30 -11 -9 -15 -26 -12 -56 2 -24 0 -43 -4 -43 -5 0 -8 -5
-8 -10 0 -15 53 -6 58 10 3 7 0 10 -6 6 -6 -3 -14 -2 -17 4 -4 6 -1 9 7 8 10
-2 13 17 13 85 1 49 -3 91 -7 93 -5 3 -8 2 -7 -3z"/>
<path d="M1838 1163 c-5 -62 -6 -143 -1 -170 4 -28 9 -33 34 -33 25 0 29 3 25
23 -3 12 -7 47 -10 78 -7 63 -24 119 -37 119 -5 0 -10 -8 -11 -17z"/>
<path d="M2092 1163 c-5 -10 -26 -71 -47 -136 -44 -137 -101 -233 -186 -313
-69 -64 -105 -88 -124 -80 -37 14 3 95 93 188 71 74 77 99 20 89 -60 -11 -122
-52 -203 -135 -86 -86 -123 -141 -154 -227 -34 -94 -45 -161 -45 -259 0 -94
11 -196 20 -187 3 3 11 28 19 55 21 80 67 134 205 237 123 92 237 201 301 287
49 67 107 193 124 272 27 120 10 275 -23 209z"/>
<path d="M1552 1115 c0 -16 2 -22 5 -12 2 9 2 23 0 30 -3 6 -5 -1 -5 -18z"/>
<path d="M663 1118 c-15 -18 -14 -70 3 -137 7 -29 11 -58 8 -63 -3 -5 3 -12
15 -15 11 -3 18 -9 15 -14 -3 -5 -10 -7 -15 -4 -5 3 -6 -1 -2 -10 5 -14 8 -14
15 -3 7 9 8 5 4 -14 -4 -15 -1 -32 6 -40 7 -7 14 -20 16 -28 4 -20 22 -38 22
-23 0 7 -5 15 -11 19 -6 3 3 15 23 27 26 16 29 22 16 25 -10 2 -18 7 -19 10
-6 40 -5 72 2 61 5 -8 6 -22 3 -31 -3 -11 3 -21 16 -28 20 -11 20 -13 6 -29
-22 -24 -20 -50 5 -59 20 -8 20 -8 -2 -27 -19 -17 -22 -18 -16 -3 3 10 2 20
-2 22 -13 8 -7 -28 7 -44 34 -40 72 -94 72 -102 0 -5 4 -7 9 -4 5 3 11 -1 15
-9 3 -8 12 -15 21 -15 8 0 15 -5 15 -11 0 -5 -5 -7 -12 -3 -7 5 -8 3 -3 -5 5
-9 10 -10 18 -2 19 19 28 12 22 -16 -6 -27 -6 -27 9 -9 16 19 16 19 14 -8 -2
-21 6 -35 37 -60 22 -19 43 -33 47 -32 3 0 16 -11 28 -27 12 -15 26 -25 31
-22 5 4 9 1 9 -5 0 -6 4 -9 9 -6 5 3 12 -1 15 -10 3 -9 12 -14 19 -11 14 5 39
-18 30 -27 -6 -6 11 -10 33 -7 6 1 17 -6 24 -14 7 -8 10 -15 6 -15 -4 0 0 -13
9 -30 9 -16 20 -30 26 -30 6 0 7 -5 4 -10 -3 -6 -2 -10 3 -10 6 0 8 -10 4 -22
-3 -14 -1 -19 6 -14 8 5 10 -2 6 -24 -4 -17 -2 -30 4 -30 5 0 9 15 8 33 -2 17
0 37 3 42 9 16 8 74 -1 69 -4 -3 -8 -1 -8 5 0 5 4 12 8 15 7 4 9 121 2 121 -1
0 -4 18 -6 39 -1 22 -7 42 -11 45 -5 3 -8 13 -8 21 1 8 -3 21 -8 28 -5 6 -6
12 -3 12 4 0 0 7 -8 16 -18 18 -36 11 -36 -14 0 -14 2 -15 10 -2 5 8 12 11 16
8 3 -4 -1 -14 -10 -23 -12 -12 -16 -13 -16 -3 0 10 -3 9 -10 -2 -6 -10 -8 -3
-3 23 5 33 3 37 -12 31 -15 -6 -16 -5 -4 14 11 18 15 19 22 7 4 -8 15 -15 24
-15 14 0 14 2 -3 16 -10 8 -13 13 -7 9 9 -4 11 -1 7 10 -4 9 -13 14 -21 11 -8
-3 -11 -1 -8 4 11 18 -38 76 -65 76 -14 0 -26 5 -26 12 -1 7 -2 17 -3 23 0 6
-8 8 -17 5 -8 -3 -13 -2 -9 3 3 5 0 11 -7 13 -9 3 -9 6 0 12 7 4 12 2 12 -3 0
-6 7 -11 17 -11 13 0 12 3 -6 19 -13 12 -33 18 -54 16 -17 -2 -37 1 -44 6 -7
7 -14 6 -18 -1 -3 -5 -12 -10 -18 -10 -7 0 -4 7 6 14 14 11 15 15 4 25 -8 6
-18 7 -22 3 -5 -4 -5 -1 -1 6 4 6 3 12 -2 12 -5 0 -12 -9 -15 -19 -6 -26 24
-54 49 -44 16 5 17 4 7 -8 -9 -11 -7 -19 8 -38 10 -13 19 -18 19 -12 0 6 7 11
15 11 14 0 16 -5 14 -27 0 -5 -6 -7 -14 -5 -11 2 -11 -4 -2 -33 9 -31 8 -38
-11 -55 -24 -23 -33 -25 -30 -7 2 6 -5 11 -14 11 -10 -1 -16 1 -15 5 3 9 -145
151 -157 151 -6 0 -5 -5 2 -12 15 -15 15 -28 1 -28 -5 0 -8 4 -4 9 3 6 -3 14
-12 20 -11 6 -13 11 -5 11 7 0 10 5 6 12 -4 7 -3 8 4 4 20 -12 13 3 -15 35
-16 17 -27 36 -25 41 1 6 -3 20 -11 32 -8 11 -17 34 -21 49 -4 19 -12 27 -21
24 -7 -3 -16 1 -19 10 -5 12 -9 13 -21 3 -10 -9 -15 -9 -15 -1 0 6 5 11 10 11
6 0 10 7 10 15 0 18 -16 20 -23 3 -3 -8 -6 -6 -6 5 -1 26 28 21 41 -8 6 -14
15 -25 20 -25 13 0 9 27 -7 44 -17 16 -20 30 -5 21 6 -3 7 1 4 9 -3 9 -10 16
-15 16 -5 0 -13 9 -17 21 -7 17 -10 18 -19 7z m11 -34 c3 -8 2 -12 -4 -9 -6 3
-10 10 -10 16 0 14 7 11 14 -7z m27 -134 c6 0 7 6 3 13 -6 9 -4 9 8 -1 13 -10
17 -10 21 0 3 7 5 -1 4 -18 0 -17 3 -36 7 -42 3 -6 1 -12 -5 -14 -7 -2 -7 -12
0 -30 8 -20 7 -28 -4 -32 -18 -6 -29 10 -19 26 11 18 12 48 2 48 -5 0 -6 4 -3
10 3 6 -1 7 -9 4 -10 -4 -16 -1 -16 7 0 8 -2 23 -4 34 -2 11 -1 14 1 8 3 -7 9
-13 14 -13z m279 -130 c0 -5 -2 -10 -4 -10 -3 0 -8 5 -11 10 -3 6 -1 10 4 10
6 0 11 -4 11 -10z m111 -33 c-6 -8 -8 -17 -4 -20 3 -4 1 -7 -5 -7 -7 0 -12 5
-12 11 0 5 -4 7 -10 4 -5 -3 -10 -4 -10 0 0 3 10 10 23 15 30 12 31 12 18 -3z
m-51 -18 c0 -18 -2 -20 -15 -9 -13 11 -13 15 -3 21 18 12 18 12 18 -12z m-220
-40 c0 -5 -4 -7 -10 -4 -5 3 -10 2 -10 -4 0 -5 9 -13 20 -16 11 -3 20 -9 21
-13 0 -4 2 -17 5 -29 4 -22 3 -22 -14 -5 -12 11 -14 20 -8 24 7 5 4 8 -5 8
-18 0 -33 26 -23 41 7 12 24 11 24 -2z m47 -4 c0 -8 -6 -15 -14 -15 -17 0 -17
17 0 23 6 3 12 6 13 6 0 1 1 -6 1 -14z m37 -26 c-6 -11 -24 -2 -24 11 0 5 7 7
15 4 8 -4 12 -10 9 -15z m256 -5 c0 -8 -4 -13 -9 -10 -5 3 -21 -6 -35 -19 -33
-30 -46 -32 -46 -5 0 11 5 20 10 20 6 0 10 -5 10 -12 0 -6 8 -2 18 9 14 16 28
25 50 32 1 1 2 -6 2 -15z m40 -10 c0 -2 -7 -4 -15 -4 -8 0 -15 4 -15 10 0 5 7
7 15 4 8 -4 15 -8 15 -10z m-286 -17 c-4 -25 -14 -35 -14 -15 0 8 -10 19 -22
25 -20 9 -20 10 9 10 26 0 31 -4 27 -20z m-49 -35 c-17 -15 -18 -15 -6 0 7 9
9 23 5 30 -6 10 -4 11 7 0 11 -10 10 -15 -6 -30z m105 16 c0 -6 -6 -5 -15 2
-8 7 -15 14 -15 16 0 2 7 1 15 -2 8 -4 15 -11 15 -16z m-45 -34 c12 16 19 18
39 8 17 -8 27 -7 36 1 10 9 11 9 6 0 -9 -16 12 -27 27 -14 10 7 13 5 14 -10 2
-22 -19 -25 -39 -6 -19 17 -38 19 -38 5 0 -7 -5 -5 -11 5 -10 17 -29 15 -29
-4 0 -6 5 -7 10 -4 6 3 10 1 10 -5 0 -14 -62 -3 -72 13 -13 20 5 30 19 11 14
-19 14 -19 28 0z m205 -39 c0 -8 -4 -15 -10 -15 -5 0 -10 7 -10 15 0 8 5 15
10 15 6 0 10 -7 10 -15z m-144 -60 c-3 -9 -11 -13 -16 -10 -8 5 -7 11 1 21 14
18 24 11 15 -11z m98 11 c-6 -16 -34 -30 -42 -21 -6 5 28 34 40 35 4 0 5 -6 2
-14z m-41 -48 c-2 -5 -12 -8 -21 -7 -10 0 -12 3 -5 5 7 3 9 13 6 22 -6 14 -5
15 9 2 9 -8 14 -18 11 -22z m90 -2 c6 -16 -2 -28 -14 -20 -12 7 -11 34 0 34 5
0 11 -6 14 -14z m170 -16 c3 -11 1 -18 -4 -14 -5 3 -9 12 -9 20 0 20 7 17 13
-6z m-258 -11 c11 -17 -1 -21 -15 -4 -8 9 -8 15 -2 15 6 0 14 -5 17 -11z m65
-20 c0 -5 4 -8 9 -5 5 4 8 -1 7 -9 -4 -25 -11 -25 -23 1 -6 13 -7 24 -2 24 5
0 9 -5 9 -11z m-12 -34 c-3 -3 -9 2 -12 12 -6 14 -5 15 5 6 7 -7 10 -15 7 -18z
m215 -16 c-6 -23 -12 -20 -18 9 -2 14 1 19 10 16 7 -3 11 -14 8 -25z m-26 -35
c-9 -9 -28 6 -21 18 4 6 10 6 17 -1 6 -6 8 -13 4 -17z m-62 -1 c4 -11 0 -11
-18 -2 -31 16 -32 18 -8 16 11 -1 23 -7 26 -14z m42 -45 c-3 -7 -5 -2 -5 12 0
14 2 19 5 13 2 -7 2 -19 0 -25z m49 12 c0 -11 -4 -20 -8 -20 -10 0 -11 24 -1
33 9 9 9 10 9 -13z m-23 -49 c-2 -6 2 -11 8 -11 5 0 7 -4 4 -10 -3 -5 -2 -10
4 -10 10 0 9 -26 -2 -35 -4 -3 -5 -2 -2 1 6 9 -27 64 -38 64 -4 0 -5 5 -2 11
9 13 31 5 28 -10z"/>
<path d="M1016 1061 c-4 -6 -1 -11 6 -11 8 -1 6 -6 -6 -15 -16 -12 -17 -15 -4
-15 9 0 19 8 22 17 8 19 -8 40 -18 24z"/>
<path d="M1746 1003 c4 -38 8 -70 10 -71 1 -2 11 -1 22 2 17 6 19 12 12 42
-11 50 -31 94 -41 94 -5 0 -6 -30 -3 -67z"/>
<path d="M1330 1031 c0 -10 19 -25 25 -20 1 2 -3 10 -11 17 -8 7 -14 8 -14 3z"/>
<path d="M997 1003 c-8 -16 -1 -66 10 -70 15 -5 26 31 18 57 -6 20 -20 26 -28
13z"/>
<path d="M1484 988 c-12 -36 -13 -49 -3 -42 5 3 7 9 4 14 -3 4 3 7 13 6 11 0
17 6 17 18 0 28 -22 31 -31 4z m26 -2 c0 -3 -4 -8 -10 -11 -5 -3 -10 -1 -10 4
0 6 5 11 10 11 6 0 10 -2 10 -4z"/>
<path d="M1345 980 c3 -5 8 -10 11 -10 2 0 4 5 4 10 0 6 -5 10 -11 10 -5 0 -7
-4 -4 -10z"/>
<path d="M1524 973 c-4 -10 -7 -25 -6 -33 1 -10 0 -11 -4 -2 -15 34 -44 -17
-44 -78 0 -31 4 -40 17 -40 9 0 13 3 10 7 -4 3 -2 12 5 20 8 10 8 17 0 25 -7
7 -11 21 -11 32 1 17 2 18 6 4 2 -10 9 -18 15 -18 5 0 8 6 5 14 -3 7 -2 17 2
22 9 10 24 64 17 64 -2 0 -7 -8 -12 -17z"/>
<path d="M896 901 c-3 -5 1 -12 10 -15 25 -10 34 -7 34 9 0 16 -35 21 -44 6z"/>
<path d="M950 885 c0 -13 19 -20 43 -16 5 1 6 -3 3 -7 -12 -20 54 -58 77 -45
10 6 -10 25 -61 56 -47 31 -62 33 -62 12z m90 -45 c8 -16 8 -18 -4 -14 -17 6
-30 34 -16 34 5 0 14 -9 20 -20z"/>
<path d="M925 854 c9 -9 18 -14 21 -11 9 9 -6 27 -22 27 -13 0 -13 -2 1 -16z"/>
<path d="M1460 796 c0 -24 17 -28 23 -6 3 13 0 20 -9 20 -8 0 -14 -6 -14 -14z"/>
<path d="M1140 749 c0 -5 5 -7 10 -4 6 3 10 8 10 11 0 2 -4 4 -10 4 -5 0 -10
-5 -10 -11z"/>
</g>
</svg>
